<mxfile host="Electron" agent="Mozilla/5.0 (Windows NT 10.0; Win64; x64) AppleWebKit/537.36 (KHTML, like Gecko) draw.io/24.7.17 Chrome/128.0.6613.36 Electron/32.0.1 Safari/537.36" version="24.7.17">
  <diagram name="Page-1" id="cOYnVS0l4ZQ3i5XPl4ah">
    <mxGraphModel dx="3457" dy="1348" grid="1" gridSize="10" guides="1" tooltips="1" connect="1" arrows="1" fold="1" page="1" pageScale="1" pageWidth="583" pageHeight="413" math="0" shadow="0">
      <root>
        <mxCell id="0" />
        <mxCell id="1" parent="0" />
        <mxCell id="CZrRFDxmQad4wtyIb7Xi-1" value="ha-auth-card" style="rounded=0;whiteSpace=wrap;html=1;fontFamily=Courier New;fillColor=#dae8fc;strokeColor=#6c8ebf;" vertex="1" parent="1">
          <mxGeometry x="94" y="37" width="130" height="30" as="geometry" />
        </mxCell>
        <mxCell id="CZrRFDxmQad4wtyIb7Xi-2" value="ha-auth-middleware" style="rounded=0;whiteSpace=wrap;html=1;fontFamily=Courier New;fillColor=#f8cecc;strokeColor=#b85450;" vertex="1" parent="1">
          <mxGeometry x="74" y="207" width="170" height="30" as="geometry" />
        </mxCell>
        <mxCell id="CZrRFDxmQad4wtyIb7Xi-3" value="ha-auth-verify" style="rounded=0;whiteSpace=wrap;html=1;fontFamily=Courier New;fillColor=#d5e8d4;strokeColor=#82b366;" vertex="1" parent="1">
          <mxGeometry x="384" y="207" width="140" height="30" as="geometry" />
        </mxCell>
        <mxCell id="CZrRFDxmQad4wtyIb7Xi-5" value="" style="endArrow=classic;html=1;rounded=0;exitX=0.5;exitY=1;exitDx=0;exitDy=0;entryX=0.5;entryY=0;entryDx=0;entryDy=0;" edge="1" parent="1" source="CZrRFDxmQad4wtyIb7Xi-1" target="CZrRFDxmQad4wtyIb7Xi-2">
          <mxGeometry width="50" height="50" relative="1" as="geometry">
            <mxPoint x="294" y="157" as="sourcePoint" />
            <mxPoint x="344" y="107" as="targetPoint" />
          </mxGeometry>
        </mxCell>
        <mxCell id="CZrRFDxmQad4wtyIb7Xi-6" value="" style="endArrow=classic;html=1;rounded=0;exitX=1;exitY=0.25;exitDx=0;exitDy=0;entryX=0;entryY=0.25;entryDx=0;entryDy=0;" edge="1" parent="1" source="CZrRFDxmQad4wtyIb7Xi-2" target="CZrRFDxmQad4wtyIb7Xi-3">
          <mxGeometry width="50" height="50" relative="1" as="geometry">
            <mxPoint x="349" y="204.5" as="sourcePoint" />
            <mxPoint x="274" y="207" as="targetPoint" />
          </mxGeometry>
        </mxCell>
        <mxCell id="CZrRFDxmQad4wtyIb7Xi-7" value="" style="endArrow=classic;html=1;rounded=0;entryX=1;entryY=0.75;entryDx=0;entryDy=0;exitX=0;exitY=0.75;exitDx=0;exitDy=0;" edge="1" parent="1" source="CZrRFDxmQad4wtyIb7Xi-3" target="CZrRFDxmQad4wtyIb7Xi-2">
          <mxGeometry width="50" height="50" relative="1" as="geometry">
            <mxPoint x="324" y="225" as="sourcePoint" />
            <mxPoint x="284" y="217" as="targetPoint" />
          </mxGeometry>
        </mxCell>
        <mxCell id="CZrRFDxmQad4wtyIb7Xi-8" value="service with forward auth" style="rounded=0;whiteSpace=wrap;html=1;fontFamily=Courier New;fillColor=#fff2cc;strokeColor=#d6b656;" vertex="1" parent="1">
          <mxGeometry x="59" y="347" width="200" height="30" as="geometry" />
        </mxCell>
        <mxCell id="CZrRFDxmQad4wtyIb7Xi-9" value="" style="endArrow=classic;html=1;rounded=0;entryX=0.5;entryY=0;entryDx=0;entryDy=0;exitX=0.5;exitY=1;exitDx=0;exitDy=0;" edge="1" parent="1" source="CZrRFDxmQad4wtyIb7Xi-2" target="CZrRFDxmQad4wtyIb7Xi-8">
          <mxGeometry width="50" height="50" relative="1" as="geometry">
            <mxPoint x="394" y="240" as="sourcePoint" />
            <mxPoint x="254" y="240" as="targetPoint" />
          </mxGeometry>
        </mxCell>
      </root>
    </mxGraphModel>
  </diagram>
</mxfile>
